HIERARCHY
ROOT Hips
{
    OFFSET 0.000000 0.000000 0.000000
    CHANNELS 6 Xposition Yposition Zposition Zrotation Yrotation Xrotation
    JOINT LeftUpLeg
    {
        OFFSET 9.223232 -10.401557 3.955652
        CHANNELS 3 Zrotation Yrotation Xrotation
        JOINT LeftLeg
        {
            OFFSET 14.153672 -38.886868 0.000000
            CHANNELS 3 Zrotation Yrotation Xrotation
            JOINT LeftFoot
            {
                OFFSET 15.073878 -41.415165 0.000000
                CHANNELS 3 Zrotation Yrotation Xrotation
                JOINT LeftToeBase
                {
                    OFFSET 0.986020 -2.709143 10.674577
                    CHANNELS 3 Zrotation Yrotation Xrotation
                    End Site
                    {
                        OFFSET 0.000000 0.000000 0.000000
                    }
                }
            }
        }
    }
    JOINT RightUpLeg
    {
        OFFSET -8.598510 -10.401613 3.955652
        CHANNELS 3 Zrotation Yrotation Xrotation
        JOINT RightLeg
        {
            OFFSET -13.805581 -37.930595 0.000000
            CHANNELS 3 Zrotation Yrotation Xrotation
            JOINT RightFoot
            {
                OFFSET -15.566465 -42.768635 0.000000
                CHANNELS 3 Zrotation Yrotation Xrotation
                JOINT RightToeBase
                {
                    OFFSET -0.850724 -2.337403 11.319788
                    CHANNELS 3 Zrotation Yrotation Xrotation
                    End Site
                    {
                        OFFSET 0.000000 0.000000 0.000000
                    }
                }
            }
        }
    }
    JOINT Spine
    {
        OFFSET 0.026472 11.647332 -2.326452
        CHANNELS 3 Zrotation Yrotation Xrotation
        JOINT Spine1
        {
            OFFSET 0.108768 11.974256 -0.101204
            CHANNELS 3 Zrotation Yrotation Xrotation
            JOINT Neck1
            {
                OFFSET -0.658701 9.927032 1.608823
                CHANNELS 3 Zrotation Yrotation Xrotation
                JOINT Head
                {
                    OFFSET 0.557159 10.117982 -1.890084
                    CHANNELS 3 Zrotation Yrotation Xrotation
                    End Site
                    {
                        OFFSET 0.000000 0.000000 0.000000
                    }
                }
            }
            JOINT LeftShoulder
            {
                OFFSET 0.000000 0.000000 0.000000
                CHANNELS 3 Zrotation Yrotation Xrotation
                JOINT LeftArm
                {
                    OFFSET 18.647236 6.758323 -1.504515
                    CHANNELS 3 Zrotation Yrotation Xrotation
                    JOINT LeftForeArm
                    {
                        OFFSET 32.021812 -0.000000 -0.000000
                        CHANNELS 3 Zrotation Yrotation Xrotation
                        JOINT LeftHand
                        {
                            OFFSET 19.792652 -0.000000 0.000000
                            CHANNELS 3 Zrotation Yrotation Xrotation
                            End Site
                            {
                                OFFSET 0.000000 0.000000 0.000000
                            }
                        }
                    }
                }
            }
            JOINT RightShoulder
            {
                OFFSET 0.000000 0.000000 0.000000
                CHANNELS 3 Zrotation Yrotation Xrotation
                JOINT RightArm
                {
                    OFFSET -19.347084 6.820524 -2.428052
                    CHANNELS 3 Zrotation Yrotation Xrotation
                    JOINT RightForeArm
                    {
                        OFFSET -32.363182 -0.000000 -0.000000
                        CHANNELS 3 Zrotation Yrotation Xrotation
                        JOINT RightHand
                        {
                            OFFSET -19.915251 -0.000000 0.000000
                            CHANNELS 3 Zrotation Yrotation Xrotation
                            End Site
                            {
                                OFFSET 0.000000 0.000000 0.000000
                            }
                        }
                    }
                }
            }
        }
    }
}
MOTION
Frames: 6
Frame Time: 0.016667
68.776451 93.259598 -227.345703 4.090902 -40.336311 -9.749700 -28.646013 -2.607101 -5.798603 3.915803 12.047501 35.900112 2.642702 3.374600 -32.058899 0.655001 5.176804 14.413511 10.689800 20.244600 -16.580400 -5.922102 -14.352398 44.668304 -1.276700 3.940902 -20.423300 -0.010400 0.659500 -1.812201 -10.148466 2.089746 14.096917 3.573702 0.349500 -4.665704 7.094651 -18.194754 12.848742 8.086506 -6.174302 12.979203 0.000000 0.000000 0.000000 -86.417519 0.919701 16.664103 8.708805 -14.695213 -1.125101 0.000000 0.000000 10.289805 0.000000 0.000000 0.000000 92.570801 3.201303 5.128201 -9.473008 15.911001 -1.326801 0.000000 0.000000 28.575207 
68.525276 93.194130 -227.419083 4.072501 -40.091499 -9.683401 -28.404200 -2.480500 -5.886703 3.921599 12.055398 35.928104 2.600500 3.311701 -31.787708 0.647400 5.147202 14.328807 11.590301 19.711502 -16.852793 -5.985400 -14.414199 44.923115 -1.314600 3.643602 -20.782309 -0.064600 1.640401 -4.513000 -10.383254 1.886145 14.485624 3.708699 0.285700 -4.901399 6.717817 -17.029301 12.067000 7.862906 -5.779003 12.497907 0.000000 0.000000 0.000000 -85.919899 0.799602 18.009405 8.507604 -14.372207 -1.074600 0.000000 0.000000 10.842500 0.000000 0.000000 0.000000 92.663002 3.060599 4.476501 -9.528101 15.998008 -1.341900 0.000000 0.000000 28.610300 
68.248138 92.966095 -227.327637 4.406802 -39.749802 -9.849101 -28.564407 -2.295402 -6.020902 4.006501 12.169002 36.332397 2.631201 2.773801 -31.745703 0.628400 5.072402 14.115108 12.091605 18.603802 -16.801508 -5.946200 -14.376001 44.765404 -1.308100 4.813698 -20.571899 -0.053700 1.495000 -4.112100 -10.649216 1.698349 14.434810 3.821903 0.228400 -4.884104 6.008046 -15.964211 11.785830 7.752400 -5.466104 12.416900 0.000000 0.000000 0.000000 -86.053711 0.719102 16.678003 8.348506 -14.116208 -1.035501 0.000000 0.000000 12.798300 0.000000 0.000000 0.000000 92.509743 2.606701 4.800302 -9.682702 16.241707 -1.384900 0.000000 0.000000 28.009800 
67.930351 92.932785 -227.208557 4.391501 -39.607407 -9.645802 -28.379007 -2.149400 -6.344201 4.099602 12.291800 36.772198 2.696900 2.422400 -31.986984 0.621200 5.043900 14.033804 12.849501 18.184900 -16.715799 -5.834998 -14.266500 44.316002 -1.272901 5.464104 -20.224504 -0.002400 0.317900 -0.873400 -10.724987 1.428566 14.199196 3.768403 0.143200 -4.587005 5.575202 -14.847917 11.156137 7.192997 -5.079903 12.318099 0.000000 0.000000 0.000000 -85.737518 0.196700 16.000103 8.460200 -14.296000 -1.062900 0.000000 0.000000 11.625100 0.000000 0.000000 0.000000 92.659203 2.569901 4.469101 -9.676500 16.232000 -1.383199 0.000000 0.000000 28.327999 
67.610321 92.824417 -227.118240 3.829905 -39.472801 -9.121612 -27.751715 -2.247602 -6.507304 4.180502 12.396807 37.150406 2.708101 2.440301 -32.058407 0.430500 4.210700 11.670208 14.176107 18.592302 -16.113510 -5.699100 -14.130202 43.761604 -1.274801 5.232603 -20.258608 -0.000700 -0.165200 0.453800 -10.235470 1.347761 14.009506 3.585100 0.138400 -4.619500 4.925019 -14.366045 11.544639 6.858805 -4.867102 11.735107 0.000000 0.000000 0.000000 -85.483101 -0.140002 14.586398 8.072404 -13.670208 -0.969201 0.000000 0.000000 14.089404 0.000000 0.000000 0.000000 92.758110 2.007602 4.343503 -9.779600 16.393995 -1.412100 0.000000 0.000000 27.945801 
67.237221 92.811996 -227.016632 4.193502 -38.839813 -9.445300 -28.069399 -2.632000 -5.881402 4.149703 12.356903 37.006599 2.764501 2.059401 -32.236317 0.502300 4.543702 12.611504 14.505307 19.826700 -14.903300 -5.623601 -14.053399 43.451817 -1.339800 4.073400 -20.922600 -0.097200 -2.010301 5.534202 -10.746808 1.087512 14.222332 3.621400 0.043700 -4.707200 4.605716 -13.820406 11.487748 6.617403 -4.705601 11.959405 0.000000 0.000000 0.000000 -85.086205 -0.707801 14.192202 7.849304 -13.308304 -0.917100 0.000000 0.000000 14.055202 0.000000 0.000000 0.000000 92.919098 1.409301 5.174000 -9.951602 16.663807 -1.461001 0.000000 0.000000 26.073500 
